{"title":"Ice Age 4 Continental Drift (2012) SCAMRip Hindi (Audiocleaned)","uid":7488071,"size":718764985,"categoryP":"video","categoryS":"movies","magnet":"?xt=urn:btih:74e326f4de35c0d81cd8caf50694e34cd7116ae4&amp;dn=Ice+Age+4+Continental+Drift+%282012%29+SCAMRip+Hindi+%28Audiocleaned%29+&amp;tr=udp%3A%2F%2Ftracker.openbittorrent.com%3A80&amp;tr=udp%3A%2F%2Fopen.demonii.com%3A1337&amp;tr=udp%3A%2F%2Ftracker.coppersurfer.tk%3A6969&amp;tr=udp%3A%2F%2Fexodus.desync.com%3A6969","seeders":0,"leechers":1,"uploader":"cooljatt","files":-1,"time":1343609958,"description":" &lt;a href=&quot;http://makeagif.com/media/9-20-2011/9qDvdz.gif[/IMG]&quot; rel=&quot;nofollow&quot; target=&quot;_NEW&quot;&gt;http://makeagif.com/media/9-20-2011/9qDvdz.gif[/IMG]&lt;/a&gt;\n\n[QUOTE]Format                                          : Matroska\nFormat version                                  : Version 2\nFile size                               : 676 MiB\nDuration                                        : 1h 19mn\nOverall bit rate                                : 1 186 Kbps\nEncoded date                                    : UTC 2012-07-28 17:48:48\nWriting application                     : mkvmerge v5.4.0 ('Piper') built on Mar 10 2012 13:34:39\nWriting library                         : libebml v1.2.3 + libmatroska v1.3.0\n\nVideo\nID                                              : 1\nFormat                                          : MPEG-4 Visual\nFormat profile                                  : Advanced Simple@L5\nFormat settings, BVOP                   : Yes\nFormat settings, QPel                   : No\nFormat settings, GMC                            : No warppoints\nFormat settings, Matrix                 : Default (H.263)\nCodec ID                                        : XVID\nCodec ID/Hint                           : XviD\nDuration                                        : 1h 19mn\nBit rate                                        : 1 066 Kbps\nWidth                                   : 720 pixels\nHeight                                          : 314 pixels\nDisplay aspect ratio                            : 2.25:1\nFrame rate                                      : 25.000 fps\nColor space                             : YUV\nChroma subsampling                              : 4:2:0\nBit depth                               : 8 bits\nScan type                               : Progressive\nCompression mode                                : Lossy\nBits/(Pixel*Frame)                              : 0.189\nStream size                             : 607 MiB (90%)\nTitle                                   : Ice Age 4 Continental Drift (2012) SCAMRip Hindi (Audiocleaned) Sohi\nWriting library                         : XviD 63\nDefault                                 : Yes\nForced                                          : No\n\nAudio\nID                                              : 2\nFormat                                          : MPEG Audio\nFormat version                                  : Version 1\nFormat profile                                  : Layer 3\nMuxing mode                             : Header stripping\nCodec ID                                        : A_MPEG/L3\nCodec ID/Hint                           : MP3\nDuration                                        : 1h 19mn\nBit rate mode                           : Constant\nBit rate                                        : 96.0 Kbps\nChannel(s)                                      : 2 channels\nSampling rate                           : 44.1 KHz\nCompression mode                                : Lossy\nStream size                             : 54.7 MiB (8%)\nLanguage                                        : Hindi\nDefault                                 : Yes\nForced                                          : No[/QUOTE]\n &lt;a href=&quot;\nhttp://desisnap.com/image.php?id=B6B2_501428CE&amp;jpg&quot; rel=&quot;nofollow&quot; target=&quot;_NEW&quot;&gt;\nhttp://desisnap.com/image.php?id=B6B2_501428CE&amp;jpg&lt;/a&gt; &lt;a href=&quot;\nhttp://desisnap.com/image.php?id=3349_501428CE&amp;jpg&quot; rel=&quot;nofollow&quot; target=&quot;_NEW&quot;&gt;\nhttp://desisnap.com/image.php?id=3349_501428CE&amp;jpg&lt;/a&gt; &lt;a href=&quot;\nhttp://desisnap.com/image.php?id=14AF_501428CE&amp;jpg&quot; rel=&quot;nofollow&quot; target=&quot;_NEW&quot;&gt;\nhttp://desisnap.com/image.php?id=14AF_501428CE&amp;jpg&lt;/a&gt; &lt;a href=&quot;\nhttp://desisnap.com/image.php?id=AB7D_501428CE&amp;jpg&quot; rel=&quot;nofollow&quot; target=&quot;_NEW&quot;&gt;\nhttp://desisnap.com/image.php?id=AB7D_501428CE&amp;jpg&lt;/a&gt; &lt;a href=&quot;\nhttp://desisnap.com/image.php?id=D20D_501428CE&amp;jpg&quot; rel=&quot;nofollow&quot; target=&quot;_NEW&quot;&gt;\nhttp://desisnap.com/image.php?id=D20D_501428CE&amp;jpg&lt;/a&gt; &lt;a href=&quot;\nhttp://desisnap.com/image.php?id=B203_501428CE&amp;jpg&quot; rel=&quot;nofollow&quot; target=&quot;_NEW&quot;&gt;\nhttp://desisnap.com/image.php?id=B203_501428CE&amp;jpg&lt;/a&gt; &lt;a href=&quot;\nhttp://desisnap.com/image.php?id=56E5_501428CE&amp;jpg&quot; rel=&quot;nofollow&quot; target=&quot;_NEW&quot;&gt;\nhttp://desisnap.com/image.php?id=56E5_501428CE&amp;jpg&lt;/a&gt; &lt;a href=&quot;\nhttp://desisnap.com/image.php?id=74A2_501428CE&amp;jpg&quot; rel=&quot;nofollow&quot; target=&quot;_NEW&quot;&gt;\nhttp://desisnap.com/image.php?id=74A2_501428CE&amp;jpg&lt;/a&gt;","torrent":{"xt":"urn:btih:74e326f4de35c0d81cd8caf50694e34cd7116ae4","amp;dn":"Ice+Age+4+Continental+Drift+%282012%29+SCAMRip+Hindi+%28Audiocleaned%29+","amp;tr":["udp%3A%2F%2Ftracker.openbittorrent.com%3A80","udp%3A%2F%2Fopen.demonii.com%3A1337","udp%3A%2F%2Ftracker.coppersurfer.tk%3A6969","udp%3A%2F%2Fexodus.desync.com%3A6969"],"infoHash":"74e326f4de35c0d81cd8caf50694e34cd7116ae4","infoHashBuffer":{"type":"Buffer","data":[116,227,38,244,222,53,192,216,28,216,202,245,6,148,227,76,215,17,106,228]},"announce":[],"urlList":[]}}